{
  "accessors": [
    {
      "bufferView": 1,
      "componentType": 5126,
      "count": 639,
      "max": [
        0.27000001072883606,
        0.3499999940395355,
        1.649999976158142
      ],
      "min": [
        -0.25,
        -0.8499799966812134,
        0.9800000190734863
      ],
      "type": "VEC3"
    },
    {
      "bufferView": 1,
      "byteOffset": 7668,
      "componentType": 5126,
      "count": 639,
      "max": [
        1.0,
        1.0,
        1.0
      ],
      "min": [
        -1.0,
        -1.0,
        -1.0
      ],
      "type": "VEC3"
    },
    {
      "bufferView": 0,
      "componentType": 5125,
      "count": 1800,
      "type": "SCALAR"
    },
    {
      "bufferView": 1,
      "byteOffset": 15336,
      "componentType": 5126,
      "count": 137,
      "max": [
        0.05000000074505806,
        0.05000000074505806,
        1.0
      ],
      "min": [
        -0.05000000074505806,
        -0.05000000074505806,
        0.0
      ],
      "type": "VEC3"
    },
    {
      "bufferView": 1,
      "byteOffset": 16980,
      "componentType": 5126,
      "count": 137,
      "max": [
        0.9486823678016663,
        0.9486823678016663,
        1.0
      ],
      "min": [
        -0.9486823678016663,
        -0.9486823678016663,
        -1.0
      ],
      "type": "VEC3"
    },
    {
      "bufferView": 0,
      "byteOffset": 7200,
      "componentType": 5125,
      "count": 336,
      "type": "SCALAR"
    },
    {
      "bufferView": 1,
      "byteOffset": 18624,
      "componentType": 5126,
      "count": 246,
      "max": [
        0.21799999475479126,
        0.3100000023841858,
        1.2798000574111938
      ],
      "min": [
        -0.20893000066280365,
        -0.3100000023841858,
        1.0134299993515015
      ],
      "type": "VEC3"
    },
    {
      "bufferView": 1,
      "byteOffset": 21576,
      "componentType": 5126,
      "count": 246,
      "max": [
        0.984807550907135,
        1.0,
        0.984807550907135
      ],
      "min": [
        -0.984807550907135,
        -1.0,
        -0.984807550907135
      ],
      "type": "VEC3"
    },
    {
      "bufferView": 0,
      "byteOffset": 8544,
      "componentType": 5125,
      "count": 480,
      "type": "SCALAR"
    }
  ],
  "asset": {
    "extras": {
      "author": "Jens (https://sketchfab.com/excitedneon)",
      "license": "CC-BY-SA-4.0 (http://creativecommons.org/licenses/by-sa/4.0/)",
      "source": "https://sketchfab.com/3d-models/30days3d-day-3-mail-box-357acbf2a0d04aa591a7d71982af0436",
      "title": "#30Days3D - Day 3 - Mail Box"
    },
    "generator": "Sketchfab-12.68.0",
    "version": "2.0"
  },
  "bufferViews": [
    {
      "buffer": 0,
      "byteLength": 10464,
      "name": "floatBufferViews",
      "target": 34963
    },
    {
      "buffer": 0,
      "byteLength": 24528,
      "byteOffset": 10464,
      "byteStride": 12,
      "name": "floatBufferViews",
      "target": 34962
    }
  ],
  "buffers": [
    {
      "byteLength": 34992,
      "uri": "scene.bin"
    }
  ],
  "materials": [
    {
      "doubleSided": true,
      "name": "Paper",
      "pbrMetallicRoughness": {
        "baseColorFactor": [
          1.0,
          0.8853815793991089,
          0.6713529825210571,
          1.0
        ],
        "metallicFactor": 0.0,
        "roughnessFactor": 0.6
      }
    },
    {
      "doubleSided": true,
      "name": "Red_Metal",
      "pbrMetallicRoughness": {
        "baseColorFactor": [
          0.8000000715255737,
          0.020925017073750496,
          0.015837308019399643,
          1.0
        ],
        "metallicFactor": 0.0,
        "roughnessFactor": 0.6
      }
    },
    {
      "doubleSided": true,
      "name": "Gray_Metal",
      "pbrMetallicRoughness": {
        "baseColorFactor": [
          0.517332911491394,
          0.517332911491394,
          0.517332911491394,
          1.0
        ],
        "metallicFactor": 0.0,
        "roughnessFactor": 0.6
      }
    }
  ],
  "meshes": [
    {
      "name": "Mailbox_0",
      "primitives": [
        {
          "attributes": {
            "NORMAL": 1,
            "POSITION": 0
          },
          "indices": 2,
          "material": 1,
          "mode": 4
        }
      ]
    },
    {
      "name": "Mailbox_1",
      "primitives": [
        {
          "attributes": {
            "NORMAL": 4,
            "POSITION": 3
          },
          "indices": 5,
          "material": 2,
          "mode": 4
        }
      ]
    },
    {
      "name": "Letters_0",
      "primitives": [
        {
          "attributes": {
            "NORMAL": 7,
            "POSITION": 6
          },
          "indices": 8,
          "material": 0,
          "mode": 4
        }
      ]
    }
  ],
  "nodes": [
    {
      "children": [
        1
      ],
      "matrix": [
        1.0,
        0.0,
        0.0,
        0.0,
        0.0,
        2.220446049250313e-16,
        -1.0,
        0.0,
        0.0,
        1.0,
        2.220446049250313e-16,
        0.0,
        0.0,
        0.0,
        0.0,
        1.0
      ],
      "name": "Sketchfab_model"
    },
    {
      "children": [
        2,
        5
      ],
      "name": "Root"
    },
    {
      "children": [
        3,
        4
      ],
      "name": "Mailbox"
    },
    {
      "mesh": 0,
      "name": "Mailbox_0"
    },
    {
      "mesh": 1,
      "name": "Mailbox_1"
    },
    {
      "children": [
        6
      ],
      "name": "Letters"
    },
    {
      "mesh": 2,
      "name": "Letters_0"
    }
  ],
  "scene": 0,
  "scenes": [
    {
      "name": "Sketchfab_Scene",
      "nodes": [
        0
      ]
    }
  ]
}
