<svg xmlns="http://www.w3.org/2000/svg" version="1.1" xmlns:xlink="http://www.w3.org/1999/xlink" xmlns:svgjs="http://svgjs.dev/svgjs" width="2000" height="2000" viewBox="0 0 2000 2000"><g transform="matrix(1,0,0,1,-0.28443113772425477,-0.28443113772459583)"><svg viewBox="0 0 334 334" data-background-color="#ffffff" preserveAspectRatio="xMidYMid meet" height="2000" width="2000" xmlns="http://www.w3.org/2000/svg" xmlns:xlink="http://www.w3.org/1999/xlink"><g id="tight-bounds" transform="matrix(1,0,0,1,0.04749999999998522,0.04750000000001364)"><svg viewBox="0 0 333.90454557049503 333.90454557049503" height="333.90454557049503" width="333.90454557049503"><g><svg></svg></g><g><svg viewBox="0 0 333.90454557049503 333.90454557049503" height="333.90454557049503" width="333.90454557049503"><g><path d="M0 166.952c0-92.205 74.747-166.952 166.952-166.952 92.205 0 166.952 74.747 166.953 166.952 0 92.205-74.747 166.952-166.953 166.953-92.205 0-166.952-74.747-166.952-166.953zM166.952 316.63c82.665 0 149.677-67.013 149.678-149.678 0-82.665-67.013-149.677-149.678-149.677-82.665 0-149.677 67.013-149.677 149.677 0 82.665 67.013 149.677 149.677 149.678z" data-fill-palette-color="tertiary" fill="#151030" stroke="transparent"></path><ellipse rx="160.27418187383762" ry="160.27418187383762" cx="166.95227278524752" cy="166.95227278524752" fill="#151030" stroke="transparent" stroke-width="0" fill-opacity="1" data-fill-palette-color="tertiary"></ellipse></g><g transform="matrix(1,0,0,1,65.26496264390376,71.17305217166896)"><svg viewBox="0 0 203.37462028268752 191.55844122715712" height="191.55844122715712" width="203.37462028268752"><g><svg viewBox="0 0 203.37462028268752 191.55844122715712" height="191.55844122715712" width="203.37462028268752"><g><svg viewBox="0 0 203.37462028268754 191.55844122715715" height="191.55844122715712" width="203.37462028268752"><g><svg viewBox="0 0 203.37462028268754 191.55844122715715" height="191.55844122715715" width="203.37462028268754"><g><svg viewBox="0 0 203.37462028268754 191.55844122715715" height="191.55844122715715" width="203.37462028268754" id="textblock"><g><svg viewBox="0 0 203.37462028268754 191.55844122715715" height="191.55844122715715" width="203.37462028268754"><g transform="matrix(1,0,0,1,0,0)"><svg width="203.37462028268754" viewBox="-0.45000001788139343 -34.54999923706055 44.75 42.14999771118164" height="191.55844122715715" data-palette-color="#ffffff"><path d="M10.2-34.55L10.2-5Q10.2 0.4 7.85 3.18 5.5 5.95 1.25 7.6L1.25 7.6-0.45 3.1Q1.4 2.2 2.3 1.18 3.2 0.15 3.5-1.3 3.8-2.75 3.8-5.25L3.8-5.25 3.8-34.55 10.2-34.55ZM42.1-34.55L44.3 0 38.25 0 37.65-14.6Q37.35-22.6 37.35-26L37.35-26 37.4-28.6 32.65-3.8 26.65-3.8 21.7-28.65Q21.75-27.15 21.75-24.05L21.75-24.05Q21.75-18.8 21.55-14.4L21.55-14.4 21 0 15.05 0 17.25-34.55 25.25-34.55 29.75-10.2 33.95-34.55 42.1-34.55Z" opacity="1" transform="matrix(1,0,0,1,0,0)" fill="#ffffff" class="undefined-text-0" data-fill-palette-color="quaternary" id="text-0"></path></svg></g></svg></g></svg></g></svg></g><g></g></svg></g></svg></g></svg></g></svg></g><defs></defs></svg><rect width="333.90454557049503" height="333.90454557049503" fill="none" stroke="none" visibility="hidden"></rect></g></svg></g></svg>